<svg fill="#ffffff" viewBox="0 0 89.953 16.79" height="100%" width="100%" xmlns="http://www.w3.org/2000/svg"><path preserveAspectRatio="none" d="M6.79 10.60L2.76 10.60L2.76 7.80L6.26 7.80Q6.92 7.80 7.47 7.52Q8.03 7.24 8.35 6.72Q8.67 6.19 8.67 5.43L8.67 5.43Q8.67 4.69 8.35 4.16Q8.03 3.63 7.47 3.36Q6.92 3.08 6.26 3.08L6.26 3.08L2.76 3.08L2.76 0.28L6.79 0.28Q8.33 0.28 9.57 0.90Q10.81 1.52 11.53 2.68Q12.26 3.84 12.26 5.43L12.26 5.43Q12.26 7.01 11.53 8.18Q10.81 9.34 9.57 9.97Q8.33 10.60 6.79 10.60L6.79 10.60ZM3.61 16.51L0 16.51L0 0.28L3.61 0.28L3.61 16.51ZM17.89 16.51L14.28 16.51L14.28 0.28L17.89 0.28L17.89 16.51ZM28.73 16.77L28.73 16.77Q26.91 16.77 25.36 16.13Q23.80 15.50 22.64 14.35Q21.48 13.20 20.84 11.67Q20.19 10.14 20.19 8.37L20.19 8.37Q20.19 6.60 20.84 5.07Q21.48 3.54 22.63 2.41Q23.78 1.29 25.33 0.66Q26.89 0.02 28.70 0.02L28.70 0.02Q30.64 0.02 32.14 0.64Q33.65 1.26 34.78 2.35L34.78 2.35L32.36 4.78Q31.72 4.09 30.81 3.70Q29.90 3.31 28.70 3.31L28.70 3.31Q27.65 3.31 26.76 3.67Q25.88 4.03 25.24 4.69Q24.61 5.36 24.25 6.30Q23.90 7.24 23.90 8.37L23.90 8.37Q23.90 9.52 24.25 10.46Q24.61 11.41 25.24 12.07Q25.88 12.74 26.76 13.11Q27.65 13.48 28.70 13.48L28.70 13.48Q29.95 13.48 30.87 13.09Q31.79 12.70 32.45 12.01L32.45 12.01L34.89 14.44Q33.72 15.52 32.21 16.15Q30.70 16.77 28.73 16.77ZM43.98 16.79L43.98 16.79Q42.14 16.79 40.58 16.15Q39.03 15.50 37.86 14.35Q36.69 13.20 36.04 11.67Q35.40 10.14 35.40 8.37L35.40 8.37Q35.40 6.58 36.04 5.06Q36.69 3.54 37.84 2.40Q38.98 1.26 40.54 0.63Q42.09 0 43.93 0L43.93 0Q45.75 0 47.30 0.63Q48.85 1.26 50.01 2.40Q51.17 3.54 51.82 5.07Q52.46 6.60 52.46 8.39L52.46 8.39Q52.46 10.17 51.82 11.70Q51.17 13.22 50.02 14.36Q48.88 15.50 47.32 16.15Q45.77 16.79 43.98 16.79ZM43.93 13.50L43.93 13.50Q45.38 13.50 46.47 12.86Q47.56 12.21 48.16 11.05Q48.76 9.89 48.76 8.37L48.76 8.37Q48.76 7.22 48.41 6.29Q48.07 5.36 47.43 4.68Q46.78 4.00 45.90 3.65Q45.01 3.29 43.93 3.29L43.93 3.29Q42.48 3.29 41.39 3.92Q40.30 4.55 39.70 5.69Q39.10 6.83 39.10 8.37L39.10 8.37Q39.10 9.52 39.45 10.46Q39.79 11.41 40.42 12.09Q41.05 12.76 41.95 13.13Q42.85 13.50 43.93 13.50ZM58.37 16.51L54.76 16.51L54.76 0.28L58.37 0.28L58.37 16.51ZM68.06 16.51L63.94 16.51L63.94 13.34L67.96 13.34Q69.44 13.34 70.54 12.75Q71.64 12.17 72.24 11.04Q72.84 9.91 72.84 8.37L72.84 8.37Q72.84 6.83 72.23 5.73Q71.62 4.62 70.53 4.03Q69.44 3.43 67.96 3.43L67.96 3.43L63.82 3.43L63.82 0.28L68.01 0.28Q69.85 0.28 71.40 0.86Q72.96 1.45 74.12 2.54Q75.28 3.63 75.91 5.12Q76.54 6.60 76.54 8.39L76.54 8.39Q76.54 10.17 75.91 11.66Q75.28 13.16 74.13 14.24Q72.98 15.32 71.43 15.92Q69.87 16.51 68.06 16.51L68.06 16.51ZM65.11 16.51L61.50 16.51L61.50 0.28L65.11 0.28L65.11 16.51ZM83.72 16.77L83.72 16.77Q81.72 16.77 80.28 16.11Q78.84 15.46 77.65 14.12L77.65 14.12L79.99 11.80Q80.78 12.70 81.73 13.19Q82.69 13.68 83.95 13.68L83.95 13.68Q85.10 13.68 85.73 13.27Q86.36 12.86 86.36 12.12L86.36 12.12Q86.36 11.45 85.95 11.04Q85.54 10.63 84.86 10.33Q84.18 10.03 83.36 9.75Q82.55 9.48 81.74 9.12Q80.94 8.76 80.26 8.22Q79.58 7.68 79.17 6.87Q78.75 6.05 78.75 4.81L78.75 4.81Q78.75 3.31 79.48 2.23Q80.20 1.15 81.49 0.59Q82.78 0.02 84.46 0.02L84.46 0.02Q86.16 0.02 87.57 0.62Q88.99 1.22 89.91 2.25L89.91 2.25L87.56 4.58Q86.83 3.82 86.08 3.45Q85.33 3.08 84.39 3.08L84.39 3.08Q83.44 3.08 82.89 3.44Q82.34 3.79 82.34 4.46L82.34 4.46Q82.34 5.08 82.75 5.46Q83.17 5.84 83.85 6.12Q84.53 6.39 85.34 6.67Q86.16 6.95 86.96 7.31Q87.77 7.68 88.45 8.25Q89.13 8.81 89.54 9.67Q89.95 10.53 89.95 11.80L89.95 11.80Q89.95 14.12 88.30 15.44Q86.64 16.77 83.72 16.77Z"></path></svg> 